<?xml version="1.0" encoding="UTF-8" standalone="no"?>
<svg
   xmlns:dc="http://purl.org/dc/elements/1.1/"
   xmlns:cc="http://creativecommons.org/ns#"
   xmlns:rdf="http://www.w3.org/1999/02/22-rdf-syntax-ns#"
   xmlns:svg="http://www.w3.org/2000/svg"
   xmlns="http://www.w3.org/2000/svg"
   viewBox="0 0 249.99999 52.999966"
   height="52.999966"
   width="250"
   id="svg869"
   version="1.1">
  <metadata
     id="metadata875">
    <rdf:RDF>
      <cc:Work
         rdf:about="">
        <dc:format>image/svg+xml</dc:format>
        <dc:type
           rdf:resource="http://purl.org/dc/dcmitype/StillImage" />
        <dc:title></dc:title>
      </cc:Work>
    </rdf:RDF>
  </metadata>
  <defs
     id="defs873" />
  <path
     style="fill:#333333;fill-opacity:1;stroke-width:0.12129842"
     d="m 52.043136,52.937711 c 0,-0.0477 1.959738,-8.61679 4.354973,-19.04244 2.395236,-10.42565 4.354974,-18.96889 4.354974,-18.98498 0,-0.0161 3.29872,-0.0293 7.330488,-0.0293 h 7.330489 l 0.07362,0.36784 c 0.04049,0.2023 0.142915,0.90261 0.227613,1.55622 0.0847,0.65361 0.200543,1.23348 0.257434,1.28858 0.05748,0.0557 0.323776,-0.0497 0.59935,-0.2371 1.265525,-0.86077 3.532054,-1.92468 5.240882,-2.4601 3.46436,-1.08544 7.058433,-1.24288 10.585609,-0.46367 2.416981,0.53394 3.924819,1.25842 5.539894,2.66179 1.419016,1.233 2.088418,2.21622 2.664098,3.91305 1.16687,3.43936 -0.0278,8.56258 -2.832772,12.14847 -0.915643,1.17055 -3.287238,3.20549 -4.646897,3.98724 -2.874013,1.65245 -5.956593,2.61005 -9.619145,2.9882 -4.78313,0.49383 -8.991153,-0.16437 -11.564295,-1.80885 l -0.623681,-0.39859 -0.223059,0.93291 c -0.122682,0.5131 -0.878551,3.78504 -1.679709,7.27099 l -1.456649,6.33807 -7.956607,0.0292 c -4.376134,0.016 -7.956607,-0.01 -7.956607,-0.0575 z m 24.842748,-16.71474 c 2.532958,-0.46745 4.872775,-2.33136 6.0702,-4.83557 0.97815,-2.04563 1.499466,-4.25273 1.506188,-6.37675 0.0083,-2.60729 -0.785214,-4.04746 -2.64066,-4.79286 -0.962752,-0.38678 -2.84836,-0.47674 -3.981517,-0.18994 -0.926491,0.2345 -2.129332,0.75266 -2.408175,1.03742 -0.132703,0.13551 -0.768393,2.6661 -1.785421,7.1075 -1.779361,7.77052 -1.723565,7.02702 -0.571464,7.61484 1.171961,0.59796 2.257702,0.722 3.810849,0.43536 z m 106.586456,4.44712 c -2.89419,-0.23054 -5.46065,-0.82397 -7.74358,-1.79049 -3.15784,-1.33693 -5.16871,-3.21382 -6.18901,-5.77659 -0.42201,-1.06002 -0.42808,-1.10397 -0.43018,-3.11245 -0.002,-1.87592 0.0259,-2.12459 0.35218,-3.14046 1.08154,-3.36739 3.29169,-6.0904 6.71684,-8.27541 2.95871,-1.88746 7.39339,-3.35346 11.75964,-3.88746 2.27064,-0.2777 7.57716,-0.27241 9.37903,0.009 5.61759,0.87843 8.67166,3.44962 8.02104,6.75283 -0.53718,2.72734 -3.86605,5.15365 -7.50104,5.46729 l -0.65,0.0561 -2.71555,-4.45692 c -2.38112,-3.90803 -2.7438,-4.44376 -2.94495,-4.35003 -0.35346,0.16469 -1.75309,1.4163 -2.38206,2.13012 -1.61097,1.82836 -2.77118,4.23706 -3.41574,7.09146 -0.31404,1.39073 -0.3119,3.69782 0.004,4.69697 1.07574,3.39835 4.2215,4.78477 9.01182,3.97176 1.27551,-0.21648 3.2863,-0.79367 3.62995,-1.04198 0.10089,-0.0729 0.21139,-0.10818 0.24559,-0.0784 0.0342,0.0298 0.38613,0.81291 0.78209,1.74031 0.83784,1.96236 0.91749,1.75435 -0.90653,2.3671 -2.51759,0.84574 -5.29375,1.39487 -8.26395,1.63463 -1.72229,0.13903 -4.96439,0.13534 -6.75997,-0.008 z m 39.25977,0.05 c -5.96741,-0.40404 -10.82033,-2.20733 -13.12026,-4.87535 -1.47898,-1.71568 -2.11106,-3.44252 -2.10353,-5.74673 0.0124,-3.78793 1.7916,-7.30342 5.08662,-10.05059 3.43779,-2.86621 7.89485,-4.55791 14.10215,-5.35252 2.21686,-0.28379 7.8174,-0.2851 10.00993,-0.003 6.31862,0.81488 10.30415,2.85461 12.27845,6.28395 1.84031,3.19655 1.12732,8.03435 -1.73594,11.77885 -3.4193,4.47168 -9.95304,7.31519 -18.21246,7.92615 -1.45359,0.10752 -4.96896,0.12904 -6.30496,0.0386 z m 5.93085,-4.89449 c 2.14556,-0.82379 3.60677,-3.55857 4.81097,-9.00409 0.29539,-1.33578 0.35218,-1.90431 0.36175,-3.62175 0.0127,-2.2938 -0.0731,-2.6536 -0.80039,-3.35451 -0.87839,-0.84649 -2.83059,-1.01707 -4.37237,-0.38204 -1.86447,0.76791 -3.23405,3.14598 -4.30293,7.47148 -1.4047,5.68441 -1.06444,8.44092 1.1186,9.06204 0.79472,0.22612 2.37029,0.14145 3.18437,-0.17113 z M 0.00891073,40.205051 c 0.07001228,-0.0778 2.10489337,-2.63709 4.52195837,-5.68729 2.417064,-3.0502 5.4283514,-6.84456 6.6917499,-8.43191 1.263398,-1.58735 4.331622,-5.4521 6.818274,-8.58833 l 4.521188,-5.70224 -1.421162,-4.7668998 -1.42116,-4.7669 8.902496,-0.0291 c 4.896374,-0.016 8.92909,-0.006 8.961592,0.0224 0.0325,0.0283 1.538205,4.49784 3.346007,9.9323198 1.807803,5.43448 3.735893,11.23055 4.284647,12.88015 0.548754,1.6496 1.900189,5.71081 3.003189,9.02493 1.103002,3.31412 2.005457,6.07745 2.005457,6.14075 0,0.0772 -3.151699,0.10551 -9.575192,0.086 l -9.575193,-0.029 -0.3727,-1.24497 c -0.204984,-0.68475 -0.613361,-2.04715 -0.907503,-3.02757 l -0.534806,-1.78258 h -8.677506 -8.677509 l -2.3043449,3.05585 -2.3043459,3.05586 H 3.5878313 c -2.94619689,0 -3.6801116,-0.029 -3.57892057,-0.14147 z M 27.473284,28.288541 c 0,-0.1859 -3.035274,-10.19678 -3.11433,-10.27161 -0.06903,-0.0654 -7.026717,8.96192 -7.844563,10.17795 -0.08719,0.12964 0.788256,0.15457 5.427467,0.15457 3.042285,0 5.531426,-0.0274 5.531426,-0.0609 z m 76.764826,11.80333 c 0.0727,-0.2634 5.78468,-25.12821 5.78468,-25.18108 0,-0.0164 3.15504,-0.0298 7.01119,-0.0298 6.56607,0 7.0153,0.0125 7.07576,0.19806 0.0355,0.10893 0.16119,0.88563 0.2793,1.726 0.11812,0.84035 0.23649,1.58948 0.26306,1.66472 0.03,0.0849 0.58065,-0.14726 1.45195,-0.61217 5.25419,-2.80359 9.53104,-3.87198 13.01155,-3.25038 3.67046,0.65551 5.41792,2.9957 4.64141,6.21571 -0.3248,1.34691 -0.98523,2.35443 -2.27494,3.47054 -0.96954,0.83904 -1.32849,1.06367 -2.48682,1.55624 -0.76074,0.3235 -1.91415,0.69943 -2.63311,0.85821 -1.37743,0.30421 -4.20908,0.58414 -4.37519,0.43253 -0.0558,-0.0509 -0.90152,-1.3659 -1.87935,-2.92212 -0.97781,-1.55623 -1.85071,-2.89561 -1.93977,-2.97641 -0.3603,-0.32689 -3.13473,0.47968 -3.75983,1.09305 -0.11362,0.11148 -0.99949,3.71476 -2.21725,9.01858 -1.11541,4.8581 -2.02802,8.86892 -2.02802,8.91292 0,0.044 -3.59884,0.08 -7.99743,0.08 h -7.99743 z m 39.77976,0 c 0.0727,-0.2634 5.78468,-25.12821 5.78468,-25.18108 0,-0.0164 3.58896,-0.0298 7.97549,-0.0298 h 7.97549 l -2.92491,12.73274 -2.92493,12.73274 h -7.97802 -7.97804 z m 12.60964,-29.59254 c -1.47664,-0.17779 -2.86109,-0.6835798 -3.71975,-1.3589598 -0.80583,-0.63383 -1.18857,-1.38528 -1.25722,-2.46839 -0.15192,-2.39665 1.4101,-4.61425 4.00197,-5.68161998 1.43877,-0.5925 2.33378,-0.79247 4.17282,-0.93233 3.40276,-0.25877 6.21934,0.35807 7.51887,1.64666998 0.75999,0.75359 0.97743,1.32078 0.97275,2.53742 -0.0122,3.19566 -2.61038,5.517 -6.90436,6.1689198 -1.02645,0.15584 -3.79912,0.207 -4.78508,0.0883 z"
     id="path883" />
</svg>
