<?xml version="1.0" encoding="UTF-8" standalone="no"?>
<!-- Created with Inkscape (http://www.inkscape.org/) -->

<svg
   xmlns:dc="http://purl.org/dc/elements/1.1/"
   xmlns:cc="http://creativecommons.org/ns#"
   xmlns:rdf="http://www.w3.org/1999/02/22-rdf-syntax-ns#"
   xmlns:svg="http://www.w3.org/2000/svg"
   xmlns="http://www.w3.org/2000/svg"
   xmlns:sodipodi="http://sodipodi.sourceforge.net/DTD/sodipodi-0.dtd"
   xmlns:inkscape="http://www.inkscape.org/namespaces/inkscape"
   version="1.1"
   id="svg1125"
   width="29.999969"
   height="30"
   viewBox="0 0 29.999971 30.000001"
   sodipodi:docname="delete.svg"
   inkscape:version="0.92.3 (2405546, 2018-03-11)">
  <metadata
     id="metadata1131">
    <rdf:RDF>
      <cc:Work
         rdf:about="">
        <dc:format>image/svg+xml</dc:format>
        <dc:type
           rdf:resource="http://purl.org/dc/dcmitype/StillImage" />
        <dc:title></dc:title>
      </cc:Work>
    </rdf:RDF>
  </metadata>
  <defs
     id="defs1129" />
  <sodipodi:namedview
     pagecolor="#ffffff"
     bordercolor="#666666"
     borderopacity="1"
     objecttolerance="10"
     gridtolerance="10"
     guidetolerance="10"
     inkscape:pageopacity="0"
     inkscape:pageshadow="2"
     inkscape:window-width="1440"
     inkscape:window-height="872"
     id="namedview1127"
     showgrid="false"
     fit-margin-top="0"
     fit-margin-left="0"
     fit-margin-right="0"
     fit-margin-bottom="0"
     inkscape:zoom="8.0101061"
     inkscape:cx="43.94856"
     inkscape:cy="-7.4699486"
     inkscape:window-x="1280"
     inkscape:window-y="0"
     inkscape:window-maximized="1"
     inkscape:current-layer="svg1125" />
  <path
     style="fill:#000000;stroke-width:0.03002792"
     d="M 14.20418,29.99165 C 12.08204,29.85405 10.19032,29.35535 8.34827,28.44792 4.37431,26.49025 1.4701,22.86766 0.41856,18.55675 0.25636,17.8918 0.12836,17.15011 0.05565,16.45384 c -0.0742,-0.71074 -0.0742,-2.20173 0,-2.91248 C 0.43932,9.8674 2.08498,6.52654 4.72962,4.05278 5.83852,3.01552 6.99928,2.21183 8.34827,1.54729 9.9933,0.73691 11.69333,0.2488 13.54351,0.05565 c 0.71086,-0.0742 2.20208,-0.0742 2.91294,0 3.67323,0.38347 7.01327,2.02754 9.48609,4.66934 1.04179,1.11299 1.84397,2.27058 2.5099,3.62196 0.81051,1.64476 1.29869,3.34453 1.49188,5.19441 0.0742,0.71075 0.0742,2.20174 0,2.91248 -0.34982,3.3498 -1.72705,6.38571 -3.99777,8.81249 -1.72128,1.83959 -3.88187,3.21048 -6.31269,4.0054 -0.97391,0.31849 -2.11792,0.55911 -3.16239,0.66516 -0.44248,0.0449 -1.88257,0.0797 -2.26729,0.0548 z m 1.87689,-2.31203 c 2.35569,-0.21315 4.64397,-1.08051 6.47585,-2.45464 0.61874,-0.46413 0.96971,-0.76517 1.43825,-1.23363 1.63218,-1.63192 2.78437,-3.67219 3.36272,-5.95464 0.579,-2.28497 0.48649,-4.70757 -0.2665,-6.97964 C 26.54334,9.40341 25.81854,8.10858 24.66675,6.72557 23.95658,5.87282 22.83517,4.90164 21.81686,4.25747 20.83188,3.63437 20.11467,3.29792 18.94115,2.90842 16.35717,2.05078 13.64689,2.05068 11.05882,2.90812 9.39128,3.46059 8.10547,4.18265 6.6966,5.35779 5.3722,6.46247 4.12267,8.1318 3.39037,9.77485 c -0.65324,1.46564 -1.01152,2.9586 -1.12548,4.6898 -0.0759,1.15361 0.12153,2.74904 0.49889,4.03093 0.34789,1.1818 0.73263,2.06348 1.34665,3.08599 0.83202,1.38557 1.93814,2.60388 3.27687,3.60924 1.86975,1.40415 4.15104,2.27207 6.54661,2.49068 0.89264,0.0815 1.22951,0.0812 2.14716,-0.002 z m 5.47775,-4.60457 c -0.35771,-0.0753 -0.0897,0.18055 -5.11149,-4.87913 -1.2896,-1.29932 -1.45622,-1.45713 -1.50151,-1.42203 -0.0573,0.0444 -1.10375,1.06597 -1.61105,1.57273 -0.18249,0.18229 -1.0683,1.05291 -1.96845,1.93471 -0.90016,0.88179 -1.77179,1.74026 -1.93696,1.90772 C 8.97435,22.65036 8.71358,22.87832 8.55644,22.95217 8.12168,23.1565 7.63696,23.07119 7.29605,22.73034 6.9539,22.38823 6.87019,21.90771 7.07565,21.46518 c 0.0783,-0.16868 0.27218,-0.36579 2.75912,-2.80531 0.90016,-0.883 1.78533,-1.7541 1.96704,-1.93577 0.18171,-0.18167 0.61764,-0.61271 0.96873,-0.95786 l 0.63835,-0.62756 -0.17293,-0.18166 C 13.14086,14.85712 12.57654,14.28656 11.98194,13.68914 7.64246,9.32904 7.01099,8.68091 6.92617,8.5 6.71968,8.05957 6.80345,7.57724 7.1459,7.23484 7.48786,6.89293 7.96343,6.8099 8.4128,7.01365 c 0.14964,0.0679 0.60664,0.5203 5.06276,5.01236 l 1.52365,1.53594 0.24212,-0.21859 c 0.13316,-0.12022 0.3732,-0.35458 0.53342,-0.52079 0.16022,-0.16621 0.85213,-0.84902 1.53757,-1.51735 0.68544,-0.66832 1.39491,-1.36451 1.57659,-1.54709 0.84276,-0.84688 2.65352,-2.60441 2.74777,-2.66699 0.44755,-0.29717 1.01498,-0.23883 1.39757,0.1437 0.34215,0.3421 0.42526,0.81887 0.22079,1.26671 -0.0718,0.15717 -0.69392,0.78666 -3.15407,3.19124 -0.68315,0.66772 -1.39123,1.36356 -1.57351,1.54631 -0.18227,0.18276 -0.69304,0.68746 -1.13504,1.12156 l -0.80362,0.78928 0.099,0.11239 c 0.0544,0.0618 0.71387,0.73074 1.46538,1.48649 0.7515,0.75575 2.06013,2.07198 2.90804,2.92497 0.84792,0.85299 1.57895,1.60566 1.62451,1.6726 0.13914,0.20444 0.19677,0.39734 0.19333,0.64716 -0.006,0.46178 -0.28094,0.85565 -0.71553,1.02633 -0.16166,0.0635 -0.44317,0.0892 -0.6047,0.0552 z"
     id="path1678"
     inkscape:connector-curvature="0" />
</svg>
