<?xml version="1.0" encoding="UTF-8" standalone="no"?>
<!-- Created with Inkscape (http://www.inkscape.org/) -->

<svg
   xmlns:dc="http://purl.org/dc/elements/1.1/"
   xmlns:cc="http://creativecommons.org/ns#"
   xmlns:rdf="http://www.w3.org/1999/02/22-rdf-syntax-ns#"
   xmlns:svg="http://www.w3.org/2000/svg"
   xmlns="http://www.w3.org/2000/svg"
   xmlns:sodipodi="http://sodipodi.sourceforge.net/DTD/sodipodi-0.dtd"
   xmlns:inkscape="http://www.inkscape.org/namespaces/inkscape"
   version="1.1"
   id="svg891"
   width="30.000002"
   height="30.000036"
   viewBox="0 0 30.000003 30.000037"
   sodipodi:docname="down.svg"
   inkscape:version="0.92.3 (2405546, 2018-03-11)">
  <metadata
     id="metadata897">
    <rdf:RDF>
      <cc:Work
         rdf:about="">
        <dc:format>image/svg+xml</dc:format>
        <dc:type
           rdf:resource="http://purl.org/dc/dcmitype/StillImage" />
        <dc:title></dc:title>
      </cc:Work>
    </rdf:RDF>
  </metadata>
  <defs
     id="defs895" />
  <sodipodi:namedview
     pagecolor="#ffffff"
     bordercolor="#666666"
     borderopacity="1"
     objecttolerance="10"
     gridtolerance="10"
     guidetolerance="10"
     inkscape:pageopacity="0"
     inkscape:pageshadow="2"
     inkscape:window-width="1440"
     inkscape:window-height="872"
     id="namedview893"
     showgrid="false"
     fit-margin-top="0"
     fit-margin-left="0"
     fit-margin-right="0"
     fit-margin-bottom="0"
     inkscape:zoom="1"
     inkscape:cx="60.185285"
     inkscape:cy="56.208134"
     inkscape:window-x="1280"
     inkscape:window-y="0"
     inkscape:window-maximized="1"
     inkscape:current-layer="svg891" />
  <path
     style="fill:#000000;stroke-width:0.03002792"
     d="M 14.204195,29.9915 C 12.082052,29.8539 10.190333,29.3552 8.348283,28.4478 4.374332,26.4901 1.470113,22.8675 0.418571,18.5566 0.256371,17.8916 0.128376,17.15 0.055665,16.4537 c -0.07422,-0.7108 -0.07422,-2.2018 0,-2.9125 C 0.439334,9.8672 2.085001,6.5264 4.729631,4.0526 5.83853,3.0154 6.999295,2.2117 8.348283,1.5471 9.993311,0.7367 11.693344,0.2486 13.543526,0.0555 c 0.71086,-0.074 2.202083,-0.074 2.912943,0 3.673226,0.3835 7.013267,2.0275 9.486074,4.6693 1.041815,1.113 1.84398,2.2706 2.509915,3.622 0.810511,1.6448 1.298691,3.3445 1.491878,5.1944 0.07422,0.7107 0.07422,2.2017 0,2.9125 -0.34981,3.3498 -1.727062,6.3857 -3.997786,8.8125 -1.721282,1.8396 -3.88186,3.2105 -6.312677,4.0054 -0.973913,0.3185 -2.117919,0.5591 -3.162389,0.6651 -0.442477,0.045 -1.882565,0.08 -2.267289,0.055 z m 1.876895,-2.312 c 2.355686,-0.2132 4.643966,-1.0806 6.475829,-2.4547 0.618746,-0.4641 0.969732,-0.7651 1.438252,-1.2336 1.632204,-1.6319 2.784374,-3.6722 3.362727,-5.9547 0.579004,-2.2849 0.486504,-4.7075 -0.266492,-6.9796 C 26.543352,9.4032 25.818556,8.1084 24.666773,6.7254 23.956582,5.8727 22.835179,4.9015 21.816878,4.2573 20.831896,3.6342 20.114685,3.2978 18.941161,2.9083 16.357187,2.0506 13.646906,2.0505 11.058834,2.908 9.391293,3.4604 8.105488,4.1825 6.696617,5.3576 5.372212,6.4623 4.122689,8.1316 3.390385,9.7747 c -0.653238,1.4656 -1.011524,2.9586 -1.125477,4.6898 -0.07593,1.1536 0.121524,2.749 0.498881,4.0309 0.347898,1.1818 0.732641,2.0635 1.346654,3.086 0.83202,1.3856 1.938142,2.6039 3.276872,3.6093 1.869751,1.4041 4.151043,2.272 6.546606,2.4906 0.892646,0.082 1.229514,0.081 2.147169,0 z M 14.788374,20.5389 C 14.36475,20.4509 14.577238,20.6469 10.813263,16.8773 5.43905,11.4951 5.1117,11.1618 5.033261,10.992 4.828323,10.5483 4.912,10.0688 5.254003,9.7268 5.595811,9.385 6.070298,9.3021 6.520907,9.5052 c 0.11966,0.054 0.891555,0.8129 4.321926,4.2495 l 4.176248,4.1838 3.556556,-3.5464 c 4.726774,-4.7133 4.756978,-4.7429 4.935028,-4.8256 0.44246,-0.2055 0.923193,-0.1218 1.265351,0.2204 0.341807,0.3417 0.424806,0.8161 0.221604,1.2667 -0.05401,0.1197 -0.874401,0.9528 -4.618736,4.6897 -2.504178,2.4992 -4.607108,4.5811 -4.673174,4.6263 -0.26534,0.1816 -0.578617,0.2394 -0.917336,0.1693 z"
     id="path901"
     inkscape:connector-curvature="0" />
</svg>
