<?xml version="1.0" encoding="UTF-8" standalone="no"?>
<!-- Created with Inkscape (http://www.inkscape.org/) -->

<svg
   xmlns:dc="http://purl.org/dc/elements/1.1/"
   xmlns:cc="http://creativecommons.org/ns#"
   xmlns:rdf="http://www.w3.org/1999/02/22-rdf-syntax-ns#"
   xmlns:svg="http://www.w3.org/2000/svg"
   xmlns="http://www.w3.org/2000/svg"
   xmlns:sodipodi="http://sodipodi.sourceforge.net/DTD/sodipodi-0.dtd"
   xmlns:inkscape="http://www.inkscape.org/namespaces/inkscape"
   version="1.1"
   id="svg997"
   width="29.999981"
   height="30.000065"
   viewBox="0 0 29.99998 30.000063"
   sodipodi:docname="edit.svg"
   inkscape:version="0.92.3 (2405546, 2018-03-11)">
  <metadata
     id="metadata1003">
    <rdf:RDF>
      <cc:Work
         rdf:about="">
        <dc:format>image/svg+xml</dc:format>
        <dc:type
           rdf:resource="http://purl.org/dc/dcmitype/StillImage" />
        <dc:title></dc:title>
      </cc:Work>
    </rdf:RDF>
  </metadata>
  <defs
     id="defs1001" />
  <sodipodi:namedview
     pagecolor="#ffffff"
     bordercolor="#666666"
     borderopacity="1"
     objecttolerance="10"
     gridtolerance="10"
     guidetolerance="10"
     inkscape:pageopacity="0"
     inkscape:pageshadow="2"
     inkscape:window-width="1440"
     inkscape:window-height="872"
     id="namedview999"
     showgrid="false"
     fit-margin-top="0"
     fit-margin-left="0"
     fit-margin-right="0"
     fit-margin-bottom="0"
     inkscape:zoom="14.997734"
     inkscape:cx="21.412716"
     inkscape:cy="13.931811"
     inkscape:window-x="1280"
     inkscape:window-y="0"
     inkscape:window-maximized="1"
     inkscape:current-layer="svg997" />
  <path
     style="fill:#000000;stroke-width:0.03000568"
     d="m 13.8895,29.973865 c -2.004,-0.1308 -4.3126,-0.8185 -6.1363,-1.828 -3.3099,-1.8322 -5.7735,-4.7898 -6.9757,-8.3744 C 0.2404,18.170265 0,16.694465 0,14.999365 c 0,-1.6889 0.2365,-3.1373 0.7793,-4.7718 0.7387,-2.2247003 1.9543,-4.1826003 3.6433,-5.8684003 2.2633,-2.2589 5.2048,-3.73089997 8.417,-4.21179997 0.6158,-0.092 1.0141,-0.121 1.9649,-0.1418 0.9313,-0.02 1.4592,0.011 2.3396,0.1407 4.2297,0.6212 7.9921,2.99469997 10.3317,6.51759997 1.2806,1.9282 2.0663,4.0124003 2.4014,6.3698003 0.169,1.1888 0.1631,2.8036 -0.015,4.0366 -0.3626,2.5142 -1.3245,4.8691 -2.8084,6.8753 -0.8261,1.1169 -1.978,2.2711 -3.0983,3.1045 -2.2574,1.6791 -5.1489,2.7508 -7.8913,2.9246 -0.5359,0.034 -1.6481,0.034 -2.175,-8e-4 z m 1.65,-2.2496 c 1.8304,-0.092 3.5665,-0.549 5.1889,-1.3663 1.987,-1.0008 3.6043,-2.4332 4.8449,-4.2908 0.6811,-1.0199 1.0969,-1.857 1.4741,-2.9681 0.5219,-1.5371 0.7871,-3.4422 0.6748,-4.8473 -0.2641,-3.3035 -1.572,-6.1465003 -3.8467,-8.3614003 -2.2355,-2.1766 -5.0039,-3.3825 -8.306,-3.6178 -1.1422,-0.081 -2.719,0.1114 -4.0649,0.4971 -1.5843,0.454 -3.004,1.1784 -4.3349,2.2117 -2.6574,2.0633 -4.3497,5.0612003 -4.8213,8.5407003 -0.074,0.5441 -0.075,2.3413 0,2.9029 0.3814,2.9314 1.6278,5.5322 3.5895,7.4903 0.8735,0.8719 1.5896,1.4367 2.5833,2.0373 0.7757,0.4688 1.4822,0.7868 2.505,1.1275 1.1371,0.3788 2.2207,0.5862 3.3599,0.6428 0.2475,0.012 0.477,0.024 0.51,0.027 0.033,0 0.3233,-0.01 0.645,-0.025 z m -7.5898,-5.7385 c 0.3188,-1.6363 0.3983,-2.0566 0.8389,-3.9101 l 5.4079,-5.4246 c 5.1281,-5.1439003 5.418,-5.4292003 5.6029,-5.5134003 0.3907,-0.178 0.7837,-0.1774 1.17,0 0.1731,0.08 0.2882,0.1838 1.0232,0.9215 0.8711,0.8743 0.9258,0.9445 0.9866,1.2656 0.039,0.2033 0,0.4625 -0.1113,0.6739 -0.077,0.1516003 -0.2709,0.3481003 -9.0899,9.2008003 l -1.9583,1.9658 c -1.6821,0.352 -1.8871,0.3933 -3.87,0.8189 z"
     id="path1007"
     inkscape:connector-curvature="0"
     sodipodi:nodetypes="ccsscssssscsscccccssssssssccsccscccccsscscsscc" />
</svg>
