<?xml version="1.0" encoding="UTF-8" standalone="no"?>
<!-- Created with Inkscape (http://www.inkscape.org/) -->

<svg
   xmlns:dc="http://purl.org/dc/elements/1.1/"
   xmlns:cc="http://creativecommons.org/ns#"
   xmlns:rdf="http://www.w3.org/1999/02/22-rdf-syntax-ns#"
   xmlns:svg="http://www.w3.org/2000/svg"
   xmlns="http://www.w3.org/2000/svg"
   xmlns:sodipodi="http://sodipodi.sourceforge.net/DTD/sodipodi-0.dtd"
   xmlns:inkscape="http://www.inkscape.org/namespaces/inkscape"
   version="1.1"
   id="svg891"
   width="30.000002"
   height="30.000036"
   viewBox="0 0 30.000003 30.000037"
   sodipodi:docname="up.svg"
   inkscape:version="0.92.3 (2405546, 2018-03-11)">
  <metadata
     id="metadata897">
    <rdf:RDF>
      <cc:Work
         rdf:about="">
        <dc:format>image/svg+xml</dc:format>
        <dc:type
           rdf:resource="http://purl.org/dc/dcmitype/StillImage" />
        <dc:title></dc:title>
      </cc:Work>
    </rdf:RDF>
  </metadata>
  <defs
     id="defs895" />
  <sodipodi:namedview
     pagecolor="#ffffff"
     bordercolor="#666666"
     borderopacity="1"
     objecttolerance="10"
     gridtolerance="10"
     guidetolerance="10"
     inkscape:pageopacity="0"
     inkscape:pageshadow="2"
     inkscape:window-width="1440"
     inkscape:window-height="872"
     id="namedview893"
     showgrid="false"
     fit-margin-top="0"
     fit-margin-left="0"
     fit-margin-right="0"
     fit-margin-bottom="0"
     inkscape:zoom="5.6568542"
     inkscape:cx="11.298366"
     inkscape:cy="2.9800742"
     inkscape:window-x="1280"
     inkscape:window-y="0"
     inkscape:window-maximized="1"
     inkscape:current-layer="svg891" />
  <path
     style="fill:#000000;stroke-width:0.03002792"
     d="m 15.795806,0.00853638 c 2.122143,0.1376 4.013862,0.6363 5.855912,1.54370002 3.973951,1.9577 6.87817,5.5803 7.929712,9.8911996 0.1622,0.665 0.290195,1.4066 0.362906,2.1029 0.07422,0.7108 0.07422,2.2018 0,2.9125 -0.383669,3.674 -2.029336,7.0148 -4.673966,9.4886 -1.108899,1.0372 -2.269664,1.8409 -3.618652,2.5055 -1.645028,0.8104 -3.345061,1.2985 -5.195243,1.4916 -0.71086,0.074 -2.202083,0.074 -2.912943,0 -3.673226,-0.3835 -7.013267,-2.0275 -9.486074,-4.6693 -1.041815,-1.113 -1.84398,-2.2706 -2.509915,-3.622 -0.810511,-1.6448 -1.298691,-3.3445 -1.491878,-5.1944 -0.07422,-0.7107 -0.07422,-2.2017 0,-2.9125 0.34981,-3.3498 1.727062,-6.3856996 3.997786,-8.8124996 1.721282,-1.8396 3.88186,-3.2105 6.312677,-4.00540002 0.973913,-0.3185 2.117919,-0.5591 3.162389,-0.6651 0.442477,-0.045 1.882565,-0.08 2.267289,-0.055 z M 13.918911,2.3205364 c -2.355686,0.2132 -4.643966,1.0806 -6.475829,2.4547 -0.618746,0.4641 -0.969732,0.7651 -1.438252,1.2336 -1.632204,1.6319 -2.784374,3.6722 -3.362727,5.9546996 -0.579004,2.2849 -0.486504,4.7075 0.266492,6.9796 0.548054,1.6537 1.27285,2.9485 2.424633,4.3315 0.710191,0.8527 1.831594,1.8239 2.849895,2.4681 0.984982,0.6231 1.702193,0.9595 2.875717,1.349 2.583974,0.8577 5.294255,0.8578 7.882327,3e-4 1.667541,-0.5524 2.953346,-1.2745 4.362217,-2.4496 1.324405,-1.1047 2.573928,-2.774 3.306232,-4.4171 0.653238,-1.4656 1.011524,-2.9586 1.125477,-4.6898 0.07593,-1.1536 -0.121524,-2.749 -0.498881,-4.0309 -0.347898,-1.1818 -0.732641,-2.0634996 -1.346654,-3.0859996 -0.83202,-1.3856 -1.938142,-2.6039 -3.276872,-3.6093 -1.869751,-1.4041 -4.151043,-2.272 -6.546606,-2.4906 -0.892646,-0.082 -1.229514,-0.081 -2.147169,0 z m 1.292716,7.1406 c 0.423624,0.088 0.211136,-0.108 3.975111,3.6615996 5.374213,5.3822 5.701563,5.7155 5.780002,5.8853 0.204938,0.4437 0.121261,0.9232 -0.220742,1.2652 -0.341808,0.3418 -0.816295,0.4247 -1.266904,0.2216 -0.11966,-0.054 -0.891555,-0.8129 -4.321926,-4.2495 l -4.176248,-4.1838 -3.556556,3.5464 c -4.726774,4.7133 -4.756978,4.7429 -4.935028,4.8256 -0.44246,0.2055 -0.923193,0.1218 -1.265351,-0.2204 -0.341807,-0.3417 -0.424806,-0.8161 -0.221604,-1.2667 0.05401,-0.1197 0.874401,-0.9528 4.618736,-4.6897 2.504178,-2.4992 4.607108,-4.5810996 4.673174,-4.6262996 0.26534,-0.1816 0.578617,-0.2394 0.917336,-0.1693 z"
     id="path901"
     inkscape:connector-curvature="0" />
</svg>
